<?xml version="1.0" encoding="utf-8"?>
<!-- Generator: Adobe Illustrator 24.0.0, SVG Export Plug-In . SVG Version: 6.00 Build 0)  -->
<svg version="1.1" xmlns="http://www.w3.org/2000/svg" xmlns:xlink="http://www.w3.org/1999/xlink" x="0px" y="0px"
	 viewBox="0 0 64 64" enable-background="new 0 0 64 64" xml:space="preserve">
<g id="Captions">
</g>
<g id="Icons">
	<g>
		<g>
			<path fill="#64C8F0" d="M42,12c0-0.76,0.093-1.498,0.254-2.21C40.15,6.324,36.351,4,32,4c-6.627,0-12,5.373-12,12v12
				c0,0.258,0.022,0.511,0.039,0.765c1.416-2.329,3.486-4.21,5.961-5.389V16c0-3.309,2.691-6,6-6s6,2.691,6,6v12
				c0,3.309-2.691,6-6,6c-1.049,0-2.026-0.285-2.884-0.76C28.425,33.955,28,34.927,28,36v3.3c1.252,0.445,2.594,0.7,4,0.7
				c6.627,0,12-5.373,12-12V17.974C42.75,16.305,42,14.241,42,12z"/>
		</g>
		<g>
			<circle fill="#3CC8B4" cx="52" cy="12" r="8"/>
		</g>
		<g>
			<path fill="#1EAA96" d="M45.983,12c0-4.082,3.059-7.443,7.009-7.932C52.666,4.027,52.336,4,52,4c-4.418,0-8,3.582-8,8
				s3.582,8,8,8c0.336,0,0.666-0.027,0.991-0.068C49.042,19.443,45.983,16.082,45.983,12z"/>
		</g>
		<g>
			<polygon fill="#F0F0F0" points="57,10 51,16 47,12 49,10 51,12 55,8 			"/>
		</g>
		<g>
			<path fill="#46AAD2" d="M33,4.05C32.669,4.023,32.338,4,32,4c-6.627,0-12,5.373-12,12v12c0,0.258,0.022,0.511,0.039,0.765
				c0.557-0.916,1.218-1.759,1.961-2.52V16C22,9.71,26.842,4.56,33,4.05z"/>
		</g>
		<g>
			<path fill="#46AAD2" d="M40,28V16c0-3.309-2.691-6-6-6c-0.341,0-0.674,0.035-1,0.09c2.833,0.478,5,2.942,5,5.91v12
				c0,2.96-2.156,5.419-4.978,5.906C33.341,33.961,33.665,34,34,34C37.309,34,40,31.309,40,28z"/>
		</g>
		<g>
			<path fill="#FAB400" d="M38,40.626V48c0,3.309-2.691,6-6,6s-6-2.691-6-6V36c0-3.309,2.691-6,6-6c1.047,0,2.032,0.271,2.889,0.745
				C35.575,30.031,36,29.067,36,28v-3.303C34.747,24.254,33.405,24,32,24c-6.627,0-12,5.373-12,12v12c0,6.627,5.373,12,12,12
				s12-5.373,12-12V36c0-0.266-0.012-0.528-0.029-0.789C42.556,37.549,40.482,39.442,38,40.626z"/>
		</g>
		<g>
			<path fill="#DC9600" d="M40,48v-8.55c-0.632,0.443-1.297,0.841-2,1.176V48c0,2.967-2.167,5.431-5,5.91
				c0.326,0.055,0.659,0.09,1,0.09C37.309,54,40,51.309,40,48z"/>
		</g>
		<g>
			<path fill="#DC9600" d="M22,48V36c0-6.307,4.869-11.467,11.051-11.952C32.705,24.017,32.354,24,32,24c-6.627,0-12,5.373-12,12v12
				c0,6.627,5.373,12,12,12c0.338,0,0.669-0.023,1-0.05C26.842,59.44,22,54.29,22,48z"/>
		</g>
	</g>
</g>
</svg>
